<?xml version="1.0" standalone="no"?>
<!DOCTYPE svg PUBLIC "-//W3C//DTD SVG 20010904//EN"
 "http://www.w3.org/TR/2001/REC-SVG-20010904/DTD/svg10.dtd">
<svg version="1.0" xmlns="http://www.w3.org/2000/svg"
 width="1200.000000pt" height="630.000000pt" viewBox="0 0 1200.000000 630.000000"
 preserveAspectRatio="xMidYMid meet">

<g transform="translate(0.000000,630.000000) scale(0.100000,-0.100000)"
fill="#000000" stroke="none">
<path d="M5845 5803 c-351 -28 -725 -168 -988 -370 -482 -371 -754 -1059 -807
-2042 -32 -590 120 -1027 613 -1766 236 -352 399 -558 595 -746 200 -193 399
-316 591 -366 84 -21 112 -24 226 -20 109 3 143 8 213 32 317 107 676 449
1030 977 380 569 563 989 639 1468 15 95 18 171 17 435 -2 616 -55 964 -199
1307 -121 288 -386 607 -650 783 -232 154 -566 269 -887 304 -89 10 -296 12
-393 4z m-1363 -2798 c572 -136 978 -440 1188 -888 65 -140 153 -418 136 -434
-10 -10 -233 15 -327 38 -549 129 -917 467 -1074 984 -34 112 -65 256 -65 301
0 31 11 31 142 -1z m3228 15 c0 -17 -72 -224 -107 -305 -202 -474 -548 -806
-983 -943 -97 -31 -253 -65 -348 -76 l-52 -7 6 43 c12 89 58 266 89 349 104
272 280 512 490 667 146 108 386 209 585 246 162 31 320 43 320 26z"/>
</g>
</svg>
