<?xml version="1.0" standalone="no"?>
<!DOCTYPE svg PUBLIC "-//W3C//DTD SVG 20010904//EN"
 "http://www.w3.org/TR/2001/REC-SVG-20010904/DTD/svg10.dtd">
<svg version="1.0" xmlns="http://www.w3.org/2000/svg"
 width="225.000000pt" height="225.000000pt" viewBox="0 0 225.000000 225.000000"
 preserveAspectRatio="xMidYMid meet">

<g transform="translate(0.000000,225.000000) scale(0.100000,-0.100000)"
fill="#000000" stroke="none">
<path d="M928 2230 c-350 -74 -581 -255 -675 -529 -35 -101 -43 -284 -19 -413
50 -264 228 -631 448 -921 160 -211 386 -385 472 -363 48 12 184 112 266 196
202 206 449 604 544 878 54 155 69 253 64 407 -7 188 -47 299 -159 440 -189
240 -607 376 -941 305z m415 -104 c189 -48 295 -104 407 -216 134 -133 185
-262 183 -470 -1 -149 -26 -261 -98 -428 -118 -275 -359 -636 -526 -786 -58
-52 -165 -126 -183 -126 -21 0 -139 84 -204 144 -145 136 -311 374 -432 620
-229 467 -235 784 -19 1019 101 111 238 191 399 235 103 28 109 29 251 31 104
1 143 -3 222 -23z"/>
<path d="M486 1261 c-3 -5 3 -42 13 -84 64 -249 246 -401 462 -385 32 2 61 7
65 11 10 10 -24 147 -51 205 -33 71 -122 162 -190 196 -100 49 -283 84 -299
57z"/>
<path d="M1652 1259 c-225 -29 -365 -155 -394 -357 -15 -104 -10 -116 45 -107
216 33 362 126 435 275 30 61 62 174 51 183 -11 11 -80 14 -137 6z"/>
</g>
</svg>
